<?xml version="1.0" encoding="UTF-8" standalone="no"?>
<!-- Created with Inkscape (http://www.inkscape.org/) -->

<svg
   width="7"
   height="8"
   id="svg2"
   version="1.1"
   inkscape:version="0.91 r13725"
   sodipodi:docname="destr_ovr.svg"
   xmlns:inkscape="http://www.inkscape.org/namespaces/inkscape"
   xmlns:sodipodi="http://sodipodi.sourceforge.net/DTD/sodipodi-0.dtd"
   xmlns="http://www.w3.org/2000/svg"
   xmlns:svg="http://www.w3.org/2000/svg"
   xmlns:rdf="http://www.w3.org/1999/02/22-rdf-syntax-ns#"
   xmlns:cc="http://creativecommons.org/ns#"
   xmlns:dc="http://purl.org/dc/elements/1.1/">
  <defs
     id="defs4" />
  <sodipodi:namedview
     id="base"
     pagecolor="#ffffff"
     bordercolor="#666666"
     borderopacity="1.0"
     inkscape:pageopacity="0.0"
     inkscape:pageshadow="2"
     inkscape:zoom="16"
     inkscape:cx="2.670023"
     inkscape:cy="-9.4804096"
     inkscape:document-units="px"
     inkscape:current-layer="layer1"
     showgrid="true"
     inkscape:window-width="1264"
     inkscape:window-height="1020"
     inkscape:window-x="986"
     inkscape:window-y="446"
     inkscape:window-maximized="0"
     inkscape:snap-global="false"
     inkscape:showpageshadow="0"
     inkscape:pagecheckerboard="0"
     inkscape:deskcolor="#505050">
    <inkscape:grid
       type="xygrid"
       id="grid2985"
       empspacing="5"
       visible="true"
       enabled="true"
       snapvisiblegridlinesonly="true"
       originx="0"
       originy="0"
       spacingy="1"
       spacingx="1"
       units="px" />
    <inkscape:page
       x="0"
       y="0"
       width="7"
       height="8"
       id="page2"
       margin="0"
       bleed="0" />
  </sodipodi:namedview>
  <metadata
     id="metadata7">
    <rdf:RDF>
      <cc:Work
         rdf:about="">
        <dc:format>image/svg+xml</dc:format>
        <dc:type
           rdf:resource="http://purl.org/dc/dcmitype/StillImage" />
        <dc:title />
      </cc:Work>
    </rdf:RDF>
  </metadata>
  <g
     inkscape:label="Layer 1"
     inkscape:groupmode="layer"
     id="layer1"
     transform="translate(0,-1044.3622)">
    <ellipse
       style="opacity:1;fill:#ffffff;fill-opacity:1;stroke:none;stroke-opacity:1"
       id="path3351"
       cx="3.4709821"
       cy="1050.2751"
       rx="2.4665179"
       ry="1.0825893" />
    <path
       style="fill:#ffffff;fill-opacity:1;fill-rule:evenodd;stroke:none;stroke-width:1px;stroke-linecap:butt;stroke-linejoin:miter;stroke-opacity:1"
       d="m 0.99437055,1044.3441 c 0,0 0.0262225,6.1581 0,6.0609 -0.0262225,-0.097 5.00707565,0 5.00707565,0 v -6.029 z"
       id="path3350"
       inkscape:connector-curvature="0" />
    <path
       sodipodi:nodetypes="csscccc"
       inkscape:connector-curvature="0"
       id="path4163-4-0"
       d="m 5.47583,1049.3058 v 0.5002 c 0,0 -0.5325989,1.0498 -1.5061289,1.0498 H 2.7811646 c -0.5159588,0 -1.2773243,0.043 -1.2773243,-0.115 l 0.00392,-1.501 v -0.8854"
       style="fill:none;fill-rule:evenodd;stroke:#ffffff;stroke-width:1.01003;stroke-linecap:butt;stroke-linejoin:miter;stroke-miterlimit:4;stroke-dasharray:none;stroke-opacity:1" />
    <g
       id="g4195">
      <path
         style="fill:#ffffff;fill-opacity:1;fill-rule:evenodd;stroke:none;stroke-width:1px;stroke-linecap:butt;stroke-linejoin:miter;stroke-opacity:1"
         d="m 6.0379464,1048.8912 c 0,0 -0.9375,0.904 -1.2165178,0.904 -0.2790179,0 -1.3727679,-0.011 -1.5848215,-0.1897 -0.2120535,-0.1786 -0.7589285,-1.0045 -0.7700893,-1.0603 -0.011161,-0.056 0.15625,-2.5781 0.1674108,-2.7455 0.011161,-0.1674 0.4241071,-0.8817 0.4910714,-0.8817 0.066964,0 1.4955357,0.078 1.5513393,0.089 0.055803,0.011 0.9151785,0.6809 0.9151785,0.6809 l 0.4352679,0.1898 z"
         id="path4220"
         inkscape:connector-curvature="0"
         sodipodi:nodetypes="csccsssccc" />
    </g>
    <path
       style="fill:none;stroke:#df4848;stroke-width:0.902127px;stroke-linecap:butt;stroke-linejoin:miter;stroke-opacity:1"
       d="m 1.4749083,1049.8753 0.040535,-5.0492 1.5606532,-0.026 c 1.7025303,0.052 1.6214579,2.641 1.6214579,2.641 0,0 0.1216097,2.4856 -1.5809207,2.4597 z"
       id="path1-6"
       sodipodi:nodetypes="cccccc" />
    <path
       style="fill:none;stroke:#9d0808;stroke-width:0.896326px;stroke-linecap:butt;stroke-linejoin:miter;stroke-opacity:1"
       d="m 2.3850227,1049.8987 0.03997,-5.0548 1.538893,-0.026 c 1.678792,0.052 1.59885,2.644 1.59885,2.644 0,0 0.119914,2.4884 -1.558878,2.4625 z"
       id="path1"
       sodipodi:nodetypes="cccccc" />
  </g>
</svg>
